<svg width="182" height="93" viewBox="0 0 182 93" fill="none" xmlns="http://www.w3.org/2000/svg">
<path d="M35.8608 64.219C35.8608 67.8131 35.5087 70.8445 34.8055 73.3134C34.1022 75.7822 33.2035 77.8672 32.1119 79.5709C31.0168 81.2746 29.8058 82.712 28.479 83.885C27.1486 85.0561 25.8597 86.1415 24.6107 87.142C23.7659 87.7983 22.8124 88.4396 21.7518 89.065C20.6876 89.6904 19.5951 90.2451 18.47 90.7307C17.3457 91.2146 16.2196 91.5967 15.0944 91.878C13.9692 92.1593 12.9378 92.2999 12.0011 92.2999C10.6884 92.2999 9.32167 92.1292 7.89927 91.7851C6.47776 91.441 5.18008 91.027 4.00802 90.5432C2.83595 90.0575 1.87531 89.5515 1.12519 89.019C0.37507 88.4865 0 88.0345 0 87.6594C0 87.3153 0.171608 86.8943 0.515709 86.3927C0.860694 85.8938 1.30564 85.3454 1.85231 84.7527C2.39986 84.1583 3.00933 83.5638 3.68073 82.9694C4.35301 82.3767 5.01644 81.8221 5.67279 81.3055C6.32915 80.7907 6.93067 80.336 7.47734 79.9477C8.02578 79.5558 8.45479 79.2984 8.76705 79.1737C9.26683 79.8283 9.90019 80.4298 10.6662 80.9774C11.4323 81.5249 12.2293 81.9928 13.0564 82.3856C13.8852 82.7757 14.6972 83.08 15.4943 83.2994C16.2913 83.517 16.9865 83.6275 17.581 83.6275C18.3612 83.6275 19.0962 83.4241 19.7836 83.0181C20.4709 82.612 21.0653 81.8141 21.5651 80.627C22.064 79.4382 22.4638 77.7814 22.7628 75.6566C23.0583 73.5319 23.2069 70.7499 23.2069 67.3133V39.3244C23.2069 37.7304 23.191 36.4504 23.16 35.48C23.1273 34.5123 24.2295 26.4962 25.3405 26.2459C26.4497 25.9965 27.5431 25.7134 28.6196 25.402C29.6997 25.0898 30.9107 24.7306 32.2526 24.3237H35.8634V64.219H35.8608ZM35.8608 36.6017C35.8608 38.9874 35.0708 40.9219 34.0969 40.9219H25.0035C24.0295 40.9219 23.2396 38.9874 23.2396 36.6017V25.1057C23.2396 22.72 35.8616 22.72 35.8616 25.1057V36.6017H35.8608Z" fill="#6BCEEE"/>
<path d="M14.9874 19.6222C14.9874 19.6222 17.8375 16.5943 19.2625 14.259C19.7384 13.4797 20.0542 12.7774 20.0542 12.29C20.0542 10.3421 20.0542 5.66536 20.0542 5.66536C20.0542 5.66536 20.056 2.54899 25.122 1.47689C30.1862 0.403893 34.1234 1.47689 34.1234 1.47689C34.1234 1.47689 38.066 2.54722 38.5861 5.17884C39.1054 7.80869 38.5861 11.998 38.5861 11.998C38.5861 11.998 38.0616 15.7982 34.2393 16.6748C30.4197 17.5505 25.122 17.0667 25.122 17.0667C25.122 17.0667 24.3948 17.0667 24.1649 17.0667C23.9322 17.0667 14.9874 19.6222 14.9874 19.6222Z" fill="#6BCEEE" stroke="white" stroke-miterlimit="10"/>
<path d="M31.2194 11.7937C31.2194 12.091 30.9629 12.3324 30.6462 12.3324H24.2374C23.9225 12.3324 23.6651 12.091 23.6651 11.7937C23.6651 11.4965 23.9225 11.2542 24.2374 11.2542H30.6462C30.962 11.2542 31.2194 11.4965 31.2194 11.7937Z" fill="white"/>
<path d="M35.5343 5.23723C35.5343 5.53621 35.1318 5.77682 34.6338 5.77682H24.5629C24.0649 5.77682 23.6624 5.53621 23.6624 5.23723C23.6624 4.94001 24.0649 4.6994 24.5629 4.6994H34.6338C35.1318 4.6994 35.5343 4.94001 35.5343 5.23723Z" fill="white"/>
<path d="M35.5343 8.55439C35.5343 8.85249 35.1318 9.0931 34.6338 9.0931H24.5629C24.0649 9.0931 23.6624 8.85249 23.6624 8.55439C23.6624 8.25629 24.0649 8.01569 24.5629 8.01569H34.6338C35.1318 8.01569 35.5343 8.25629 35.5343 8.55439Z" fill="white"/>
<path d="M78.9458 46.2844C78.9458 46.3756 78.9116 46.5806 78.8433 46.8997C77.9546 52.1178 77.5103 56.6181 77.5103 60.4006C77.5103 60.6285 77.7951 65.7441 78.3647 75.7473L78.3989 76.2258C78.4217 76.8866 78.1141 77.217 77.4761 77.217C76.8608 77.217 75.9152 77.2854 74.6392 77.4221C73.3859 77.5816 72.4517 77.6614 71.8364 77.6614C71.4035 77.6614 71.0731 76.8639 70.8452 75.2688C70.6174 73.6737 70.4009 72.8762 70.1958 72.8762C70.0591 72.8762 69.4438 73.3206 68.3501 74.2092C67.0057 75.303 65.7524 76.1347 64.5903 76.7043C62.7902 77.6158 60.9901 78.0715 59.1899 78.0715C54.7694 78.0715 51.0438 76.3056 48.0132 72.7737C45.1421 69.4013 43.7065 65.4706 43.7065 60.9817C43.7065 55.9231 45.1535 51.7418 48.0474 48.4377C51.078 44.997 55.0656 43.2766 60.0103 43.2766C63.4966 43.2766 66.5386 44.4843 69.1362 46.8997C69.5236 47.3554 70.1274 48.0162 70.9478 48.8821C71.0161 48.9504 71.0845 48.9846 71.1528 48.9846C71.2896 48.9846 71.4832 48.2668 71.7339 46.8313C71.9845 45.3958 72.3035 44.678 72.6909 44.678C73.3062 44.678 74.4569 44.8489 76.1431 45.1907C78.0116 45.6008 78.9458 45.9654 78.9458 46.2844ZM70.23 60.5715C70.23 57.7688 69.3983 55.3648 67.7349 53.3596C65.9803 51.1949 63.7358 50.1125 61.0015 50.1125C58.2671 50.1125 55.9884 51.1835 54.1655 53.3254C52.411 55.3762 51.5337 57.7916 51.5337 60.5715C51.5337 63.3287 52.411 65.7213 54.1655 67.7493C55.9884 69.8684 58.2671 70.928 61.0015 70.928C63.6675 70.928 65.9006 69.8456 67.7007 67.6809C69.3869 65.6529 70.23 63.2831 70.23 60.5715ZM114.664 76.5334C114.664 77.0347 114.436 77.2854 113.98 77.2854C113.228 77.2854 112.1 77.274 110.596 77.2512C109.115 77.2284 107.999 77.217 107.247 77.217C106.836 77.217 106.631 76.8866 106.631 76.2258C106.631 75.1093 106.666 73.4117 106.734 71.1331C106.802 68.8544 106.836 67.1454 106.836 66.0061C106.836 65.0946 106.825 63.7389 106.802 61.9387C106.779 60.1158 106.768 58.7486 106.768 57.8372C106.768 55.2395 106.392 53.4052 105.64 52.3342C104.729 51.0582 103.042 50.4202 100.582 50.4202C99.4422 50.4202 97.8586 51.0582 95.8306 52.3342C93.6886 53.6786 92.6177 54.8749 92.6177 55.9231V76.4309C92.6177 77.0006 92.4012 77.2854 91.9683 77.2854C91.2391 77.2854 90.1453 77.274 88.687 77.2512C87.2287 77.2284 86.1349 77.217 85.4058 77.217C84.9272 77.217 84.688 76.955 84.688 76.4309C84.688 74.6308 84.7108 71.9306 84.7563 68.3303C84.8247 64.7301 84.8589 62.0185 84.8589 60.1956C84.8589 55.342 84.3462 50.8645 83.3208 46.7629C83.2524 46.5579 83.2183 46.4097 83.2183 46.3186C83.2183 46.0907 83.3664 45.9312 83.6626 45.8401C83.8221 45.8173 85.1209 45.6122 87.5591 45.2249C90.02 44.8147 91.3075 44.6096 91.4214 44.6096C91.5581 44.6096 91.6493 44.7919 91.6948 45.1565C91.8088 46.5693 92.0708 47.9934 92.481 49.429C93.6659 48.4947 95.2267 47.3326 97.1636 45.9426C99.5562 44.4843 101.869 43.7551 104.102 43.7551C108.386 43.7551 111.314 44.997 112.886 47.4807C114.048 49.3036 114.629 52.2545 114.629 56.3333C114.629 57.0396 114.607 58.122 114.561 59.5803C114.538 61.0387 114.527 62.1324 114.527 62.8616C114.527 64.3883 114.55 66.6669 114.595 69.6975C114.641 72.7281 114.664 75.0068 114.664 76.5334ZM140.23 70.928C140.23 71.4293 140.184 72.1129 140.093 72.9788C139.979 74.0497 139.911 74.7447 139.888 75.0637C139.865 75.4739 139.831 75.7245 139.786 75.8157C139.694 75.9752 139.478 76.1347 139.136 76.2942C137.268 77.1829 134.328 77.6272 130.318 77.6272C124.986 77.6272 122.32 75.2118 122.32 70.3811C122.32 68.4443 122.365 65.539 122.457 61.6653C122.548 57.7688 122.593 54.8521 122.593 52.9153C122.593 51.981 122.126 51.4797 121.192 51.4114C120.349 51.4114 119.517 51.4 118.697 51.3772C118.218 51.2633 117.979 50.329 117.979 48.5745C117.979 47.9137 118.025 47.2187 118.116 46.4895C118.184 45.9426 118.549 45.6122 119.209 45.4983C119.779 45.4983 120.337 45.4869 120.884 45.4641C121.932 45.4185 122.457 44.9514 122.457 44.0627C122.457 43.1513 122.422 41.7613 122.354 39.8928C122.308 38.0243 122.286 36.623 122.286 35.6887C122.286 34.0253 122.605 33.1936 123.243 33.1936C123.448 33.1936 125.59 33.5468 129.668 34.2532C130.193 34.3215 130.455 34.5722 130.455 35.0051C130.455 36.0077 130.375 37.5116 130.215 39.5168C130.079 41.5221 130.01 43.026 130.01 44.0286C130.01 44.6894 130.318 45.0198 130.933 45.0198H139.136C139.524 45.0198 139.717 45.1565 139.717 45.4299C139.717 45.7034 139.672 46.1477 139.581 46.7629C139.512 47.3554 139.478 47.7997 139.478 48.0959C139.478 48.4377 139.489 48.9618 139.512 49.6682C139.535 50.3746 139.546 50.8987 139.546 51.2405C139.546 51.6734 139.227 51.8899 138.589 51.8899C137.678 51.8899 136.299 51.8329 134.454 51.719C132.608 51.5823 131.229 51.5139 130.318 51.5139C130.136 51.5139 129.999 52.1633 129.908 53.4622C129.794 55.08 129.737 57.3472 129.737 60.2639V65.3567C129.737 67.3163 129.919 68.6835 130.284 69.4583C130.831 70.6431 131.958 71.2356 133.667 71.2356C134.374 71.2356 135.411 71.0875 136.778 70.7913C138.145 70.4722 139.159 70.3127 139.82 70.3127C140.093 70.3127 140.23 70.5178 140.23 70.928ZM178.34 46.2844C178.34 46.3756 178.306 46.5806 178.238 46.8997C177.349 52.1178 176.905 56.6181 176.905 60.4006C176.905 60.6285 177.19 65.7441 177.759 75.7473L177.793 76.2258C177.816 76.8866 177.509 77.217 176.871 77.217C176.255 77.217 175.31 77.2854 174.034 77.4221C172.78 77.5816 171.846 77.6614 171.231 77.6614C170.798 77.6614 170.468 76.8639 170.24 75.2688C170.012 73.6737 169.795 72.8762 169.59 72.8762C169.454 72.8762 168.838 73.3206 167.745 74.2092C166.4 75.303 165.147 76.1347 163.985 76.7043C162.185 77.6158 160.385 78.0715 158.584 78.0715C154.164 78.0715 150.438 76.3056 147.408 72.7737C144.537 69.4013 143.101 65.4706 143.101 60.9817C143.101 55.9231 144.548 51.7418 147.442 48.4377C150.472 44.997 154.46 43.2766 159.405 43.2766C162.891 43.2766 165.933 44.4843 168.531 46.8997C168.918 47.3554 169.522 48.0162 170.342 48.8821C170.411 48.9504 170.479 48.9846 170.547 48.9846C170.684 48.9846 170.878 48.2668 171.128 46.8313C171.379 45.3958 171.698 44.678 172.085 44.678C172.701 44.678 173.851 44.8489 175.538 45.1907C177.406 45.6008 178.34 45.9654 178.34 46.2844ZM169.625 60.5715C169.625 57.7688 168.793 55.3648 167.129 53.3596C165.375 51.1949 163.13 50.1125 160.396 50.1125C157.662 50.1125 155.383 51.1835 153.56 53.3254C151.806 55.3762 150.928 57.7916 150.928 60.5715C150.928 63.3287 151.806 65.7213 153.56 67.7493C155.383 69.8684 157.662 70.928 160.396 70.928C163.062 70.928 165.295 69.8456 167.095 67.6809C168.781 65.6529 169.625 63.2831 169.625 60.5715Z" fill="#6BCEEE"/>
</svg>
